<svg xmlns="http://www.w3.org/2000/svg" viewBox="0 0 180 180">
  <defs>
    <linearGradient id="bg" x1="0" y1="0" x2="180" y2="180" gradientUnits="userSpaceOnUse">
      <stop offset="0" stop-color="#006E6E"/>
      <stop offset="1" stop-color="#12266B"/>
    </linearGradient>
    <linearGradient id="body" x1="40" y1="30" x2="140" y2="160" gradientUnits="userSpaceOnUse">
      <stop offset="0" stop-color="#ffffff" stop-opacity=".15"/>
      <stop offset="1" stop-color="#ffffff" stop-opacity="0"/>
    </linearGradient>
    <linearGradient id="cross" x1="70" y1="56" x2="110" y2="124" gradientUnits="userSpaceOnUse">
      <stop offset="0" stop-color="#ffffff"/>
      <stop offset="1" stop-color="#E6FFFD"/>
    </linearGradient>
  </defs>
  <rect width="180" height="180" rx="40" fill="url(#bg)"/>
  <rect width="180" height="180" rx="40" fill="url(#body)"/>
  <path d="M90 30c-16 6-33 9-49 10-2 0-4 2-4 4v44c0 31 20 60 49 72 29-12 49-41 49-72V44c0-2-2-4-4-4-16-1-33-4-49-10z" fill="#ffffff" opacity=".1"/>
  <rect x="78" y="54" width="24" height="72" rx="5" fill="url(#cross)"/>
  <rect x="54" y="78" width="72" height="24" rx="5" fill="url(#cross)"/>
  <path d="M90 142c-7-5-13-10-13-17 0-4 4-8 8-8 2 0 4 1 5 2 1-1 3-2 5-2 4 0 8 4 8 8 0 7-6 12-13 17z" fill="#FDBA74" opacity=".9"/>
</svg>
