<svg xmlns="http://www.w3.org/2000/svg" viewBox="0 0 48 48">
  <defs>
    <linearGradient id="body" x1="8" y1="4" x2="40" y2="44" gradientUnits="userSpaceOnUse">
      <stop offset="0" stop-color="#0E7E7E"/>
      <stop offset=".55" stop-color="#006E6E"/>
      <stop offset="1" stop-color="#12266B"/>
    </linearGradient>
    <linearGradient id="cross" x1="18" y1="16" x2="30" y2="32" gradientUnits="userSpaceOnUse">
      <stop offset="0" stop-color="#ffffff"/>
      <stop offset="1" stop-color="#E6FFFD"/>
    </linearGradient>
  </defs>
  <path d="M24 3.2c-5.2 1.9-10.4 3-15.6 3.2-.8 0-1.4.6-1.4 1.4v13.8c0 9.8 6.1 18.5 15.3 22l.9.4c.5.2 1 .2 1.5 0l.9-.4c9.2-3.5 15.3-12.2 15.3-22V7.8c0-.8-.6-1.4-1.4-1.4C34.4 6.2 29.2 5.1 24 3.2z" fill="url(#body)"/>
  <rect x="21" y="14" width="6" height="20" rx="1.4" fill="url(#cross)"/>
  <rect x="14" y="21" width="20" height="6" rx="1.4" fill="url(#cross)"/>
  <path d="M24 39.5c-1.8-1.4-3.4-2.8-3.4-4.5 0-1.2 1-2.2 2.2-2.2.5 0 1 .2 1.2.5.2-.3.7-.5 1.2-.5 1.2 0 2.2 1 2.2 2.2 0 1.7-1.6 3.1-3.4 4.5z" fill="#FDBA74" opacity=".9"/>
</svg>
